<?xml version="1.0" standalone="no"?>
<!DOCTYPE svg PUBLIC "-//W3C//DTD SVG 20010904//EN"
 "http://www.w3.org/TR/2001/REC-SVG-20010904/DTD/svg10.dtd">
<svg version="1.0" xmlns="http://www.w3.org/2000/svg"
 width="402.000000pt" height="402.000000pt" viewBox="0 0 402.000000 402.000000"
 preserveAspectRatio="xMidYMid meet">
<metadata>
Created by potrace 1.14, written by Peter Selinger 2001-2017
</metadata>
<g transform="translate(0.000000,402.000000) scale(0.100000,-0.100000)"
fill="#000000" stroke="none">
<path d="M1780 3921 c0 -4 -12 -7 -27 -7 -35 -1 -92 -11 -163 -29 -30 -8 -66
-16 -80 -19 -14 -2 -38 -9 -55 -16 -16 -6 -37 -13 -46 -15 -44 -9 -296 -121
-323 -144 -6 -5 -15 -9 -19 -9 -5 0 -19 -8 -31 -18 -12 -11 -38 -27 -57 -38
-18 -10 -40 -26 -46 -34 -7 -9 -13 -12 -13 -8 0 4 -35 -21 -77 -55 -113 -91
-168 -142 -253 -239 -30 -35 -67 -76 -81 -91 -15 -15 -25 -30 -23 -32 2 -2 -7
-16 -20 -30 -14 -15 -23 -27 -20 -27 3 0 0 -6 -6 -12 -26 -32 -58 -87 -52 -92
3 -3 0 -6 -6 -6 -12 0 -79 -129 -74 -142 1 -5 -2 -8 -7 -8 -9 0 -52 -92 -58
-124 -2 -11 -7 -24 -12 -30 -8 -11 -31 -76 -35 -99 -1 -7 -4 -16 -8 -22 -3 -5
-9 -26 -14 -45 -4 -19 -9 -39 -10 -45 -2 -5 -6 -23 -9 -40 -3 -16 -8 -37 -10
-45 -3 -8 -7 -32 -10 -52 -3 -21 -7 -55 -11 -75 -20 -141 -20 -330 2 -488 4
-33 7 -63 6 -67 -6 -24 65 -280 108 -388 24 -62 110 -242 119 -250 3 -3 13
-18 21 -35 8 -16 17 -32 20 -35 5 -4 59 -83 95 -137 6 -9 19 -25 30 -37 11
-12 38 -43 60 -70 56 -66 144 -156 154 -156 4 0 17 -10 29 -23 42 -44 64 -62
73 -60 5 2 9 -4 9 -13 0 -8 4 -13 8 -10 5 3 24 -8 43 -25 19 -16 37 -29 41
-29 4 0 13 -6 20 -13 16 -15 98 -65 153 -92 22 -11 43 -24 46 -28 3 -4 16 -9
27 -10 12 -1 22 -4 22 -8 0 -4 17 -13 38 -20 20 -6 42 -15 47 -19 13 -10 243
-87 281 -94 173 -31 212 -37 275 -40 25 -2 50 -5 55 -7 8 -4 229 -3 229 1 0 1
20 3 45 5 69 4 170 19 210 30 8 2 29 7 45 10 51 8 67 13 140 35 92 29 248 91
256 103 3 5 9 8 13 7 8 -1 79 32 86 40 3 3 20 12 38 19 17 8 32 17 32 22 0 5
5 9 12 9 6 0 26 11 44 25 18 14 37 25 43 25 6 0 11 3 11 8 0 4 18 18 40 32 22
13 42 30 44 37 3 7 12 13 21 13 8 0 15 5 15 10 0 6 7 10 16 10 8 0 12 4 9 10
-3 5 5 15 19 22 14 6 26 17 26 25 0 7 4 12 8 10 9 -2 142 132 142 144 0 4 9
11 20 14 11 3 20 12 20 19 0 7 8 21 18 32 9 10 30 37 46 59 17 22 35 43 40 47
7 5 7 8 1 8 -5 0 -3 6 6 13 8 7 18 19 22 27 4 8 17 31 29 50 43 71 116 219
110 224 -3 3 -1 6 5 6 8 0 18 24 38 90 3 8 16 42 26 68 9 22 43 154 53 205 4
15 9 39 12 55 4 15 7 39 7 55 0 15 3 27 6 27 8 0 14 104 15 255 0 150 -9 257
-30 345 -3 14 -8 39 -11 55 -2 17 -10 50 -17 75 -8 25 -14 50 -15 55 0 6 -10
37 -21 70 -11 33 -20 65 -21 70 0 6 -8 18 -17 29 -9 10 -16 20 -15 22 4 7 -28
92 -49 129 -7 11 -18 34 -27 50 -16 33 -92 157 -101 165 -3 3 -9 12 -15 21
-36 58 -68 100 -109 143 -25 28 -46 52 -46 55 0 7 -152 153 -191 183 -17 13
-44 35 -61 51 -17 15 -38 27 -45 27 -7 0 -13 4 -13 8 0 4 -14 17 -31 27 -17
11 -43 28 -58 37 -14 10 -33 21 -41 25 -8 3 -17 9 -20 13 -10 13 -128 68 -134
63 -3 -4 -6 -1 -6 5 0 7 -5 12 -11 12 -5 0 -36 12 -67 26 -31 15 -61 27 -67
29 -5 1 -17 5 -25 8 -53 20 -144 47 -195 58 -33 7 -64 14 -70 15 -12 4 -51 11
-130 23 -68 11 -485 13 -485 2z"/>
</g>
</svg>
